<svg xmlns="http://www.w3.org/2000/svg" viewBox="0 0 212.8 256.3" class="mark" aria-hidden="true">
<defs><linearGradient id="mg" x1="0%" y1="100%" x2="100%" y2="0%"><stop offset="0%" stop-color="#6B3FA0"/><stop offset="100%" stop-color="#3B82F6"/></linearGradient></defs>
<polygon points="10.00,240.29 36.00,240.29 90.00,36.29 70.00,36.29" fill="url(#mg)"/>
<polygon points="202.80,31.40 201.36,30.74 199.91,30.09 198.46,29.45 197.01,28.82 195.57,28.20 194.12,27.59 192.68,26.99 191.23,26.41 189.79,25.83 188.35,25.26 186.91,24.70 185.48,24.15 184.04,23.61 182.61,23.08 181.18,22.57 179.75,22.06 178.32,21.56 176.90,21.07 175.47,20.59 174.05,20.13 172.64,19.67 171.22,19.22 169.81,18.78 168.40,18.36 166.99,17.94 165.58,17.53 164.18,17.14 162.78,16.75 161.39,16.38 159.99,16.01 158.60,15.65 157.22,15.31 155.83,14.97 154.45,14.65 153.07,14.34 151.70,14.03 150.33,13.74 148.96,13.46 147.59,13.18 146.23,12.92 144.88,12.67 143.52,12.43 142.17,12.20 140.82,11.98 139.48,11.77 138.14,11.57 136.80,11.39 135.47,11.21 134.14,11.05 132.82,10.89 131.49,10.75 130.17,10.62 128.86,10.50 127.55,10.40 126.24,10.30 124.93,10.22 123.63,10.14 122.33,10.08 121.04,10.04 119.74,10.00 118.49,10.15 117.25,10.38 116.02,10.63 114.80,10.89 113.59,11.16 112.39,11.44 111.19,11.73 110.00,12.04 108.83,12.36 107.66,12.69 106.50,13.03 105.35,13.39 104.20,13.76 103.07,14.15 101.95,14.55 100.83,14.96 99.72,15.38 98.63,15.82 97.54,16.28 96.46,16.74 95.39,17.23 94.34,17.73 93.29,18.24 92.25,18.77 91.22,19.31 90.21,19.87 89.20,20.45 88.21,21.04 87.23,21.65 86.25,22.28 85.29,22.93 84.35,23.59 83.41,24.27 82.49,24.97 81.59,25.69 80.69,26.42 79.81,27.18 78.95,27.95 78.10,28.75 77.41,29.42 72.38,45.94 72.74,47.70 73.11,49.48 73.49,51.27 73.87,53.07 74.25,54.89 74.64,56.71 75.03,58.55 75.43,60.39 75.83,62.25 76.23,64.12 76.64,66.00 77.05,67.89 77.47,69.79 77.89,71.70 78.31,73.62 78.73,75.54 79.16,77.48 79.59,79.42 80.03,81.38 80.46,83.34 80.90,85.31 81.35,87.29 81.79,89.28 82.24,91.27 82.69,93.27 83.14,95.28 83.60,97.29 84.05,99.32 84.51,101.34 84.97,103.38 85.44,105.42 85.90,107.47 86.37,109.52 86.83,111.57 87.30,113.64 87.77,115.70 88.24,117.77 88.72,119.85 89.19,121.93 89.67,124.01 90.14,126.10 90.62,128.19 91.10,130.29 91.57,132.38 92.05,134.48 92.53,136.59 93.01,138.69 93.49,140.80 93.97,142.91 94.45,145.02 94.93,147.13 95.40,149.25 95.88,151.36 96.36,153.48 96.84,155.59 97.32,157.71 97.79,159.83 98.27,161.94 98.74,164.06 99.22,166.17 99.69,168.29 100.16,170.40 100.64,172.51 101.14,174.62 101.80,176.68 102.45,178.75 103.10,180.81 103.76,182.87 104.41,184.93 105.06,186.99 105.70,189.04 106.35,191.09 106.99,193.13 107.63,195.18 108.27,197.22 108.90,199.25 109.54,201.28 110.17,203.31 110.79,205.33 111.42,207.35 112.04,209.36 112.66,211.36 113.28,213.36 113.89,215.36 114.50,217.35 115.11,219.33 115.71,221.31 116.31,223.28 116.90,225.24 117.50,227.20 118.08,229.14 118.67,231.08 119.25,233.02 119.82,234.94 120.40,236.86 120.96,238.77 121.53,240.67 122.08,242.56 122.64,244.44 123.19,246.32 144.81,242.25 144.64,240.28 144.46,238.30 144.27,236.30 144.08,234.30 143.89,232.28 143.69,230.26 143.49,228.23 143.28,226.19 143.07,224.15 142.86,222.09 142.64,220.03 142.42,217.97 142.19,215.89 141.96,213.81 141.73,211.72 141.49,209.63 141.25,207.53 141.01,205.42 140.76,203.31 140.52,201.20 140.26,199.07 140.01,196.95 139.75,194.82 139.49,192.68 139.23,190.55 138.97,188.40 138.70,186.26 138.43,184.11 138.16,181.96 137.89,179.80 137.61,177.64 137.34,175.48 137.06,173.32 136.78,171.16 136.50,168.99 136.21,166.82 135.77,164.69 135.30,162.56 134.83,160.43 134.35,158.30 133.87,156.18 133.39,154.05 132.92,151.92 132.44,149.79 131.96,147.67 131.48,145.54 131.00,143.42 130.52,141.29 130.03,139.17 129.55,137.05 129.07,134.94 128.59,132.82 128.11,130.71 127.63,128.60 127.15,126.49 126.67,124.39 126.20,122.29 125.72,120.20 125.24,118.10 124.77,116.02 124.29,113.93 123.82,111.85 123.35,109.78 122.87,107.71 122.41,105.65 121.94,103.59 121.47,101.54 121.01,99.49 120.54,97.46 120.08,95.42 119.62,93.40 119.17,91.38 118.71,89.37 118.26,87.36 117.81,85.36 117.36,83.38 116.92,81.40 116.48,79.42 116.04,77.46 115.60,75.50 115.17,73.56 114.74,71.62 114.31,69.70 113.89,67.78 113.46,65.87 113.05,63.98 112.63,62.09 112.22,60.21 111.82,58.35 111.42,56.50 111.02,54.66 110.62,52.83 110.23,51.01 109.85,49.20 109.47,47.41 109.09,45.63 108.72,43.86 108.35,42.11 107.98,40.37 107.62,38.63 102.59,55.15 102.99,54.76 103.27,54.49 103.57,54.23 103.87,53.97 104.20,53.70 104.54,53.43 104.90,53.16 105.27,52.89 105.66,52.61 106.07,52.34 106.49,52.07 106.93,51.79 107.39,51.52 107.86,51.25 108.35,50.98 108.86,50.71 109.38,50.44 109.92,50.18 110.48,49.91 111.06,49.65 111.65,49.40 112.26,49.14 112.88,48.89 113.52,48.65 114.18,48.40 114.85,48.16 115.54,47.93 116.25,47.70 116.97,47.48 117.70,47.26 118.45,47.05 119.22,46.84 120.00,46.64 120.80,46.44 121.61,46.25 122.43,46.07 123.27,45.89 124.12,45.72 124.99,45.56 125.86,45.33 126.71,44.93 127.58,44.54 128.47,44.16 129.38,43.78 130.31,43.41 131.25,43.05 132.21,42.70 133.18,42.35 134.18,42.01 135.18,41.68 136.21,41.36 137.25,41.04 138.30,40.73 139.37,40.43 140.45,40.14 141.55,39.86 142.66,39.59 143.79,39.32 144.93,39.07 146.09,38.82 147.25,38.58 148.43,38.35 149.63,38.14 150.83,37.93 152.05,37.73 153.28,37.53 154.53,37.35 155.78,37.18 157.05,37.02 158.33,36.87 159.62,36.73 160.92,36.59 162.23,36.47 163.55,36.36 164.89,36.26 166.23,36.17 167.58,36.09 168.95,36.01 170.32,35.95 171.71,35.90 173.10,35.86 174.50,35.83 175.92,35.82 177.34,35.81 178.77,35.81 180.21,35.82 181.65,35.85 183.11,35.88 184.57,35.93 186.05,35.99 187.53,36.06 189.02,36.14 190.51,36.23 192.02,36.33 193.53,36.44 195.05,36.57 196.57,36.70 198.11,36.85 199.64,37.01 201.20,37.18" fill="url(#mg)"/>
<polygon points="180.48,56.35 179.30,55.96 178.12,55.58 176.94,55.21 175.78,54.85 174.61,54.49 173.46,54.15 172.30,53.82 171.16,53.50 170.02,53.18 168.89,52.88 167.76,52.58 166.64,52.30 165.52,52.02 164.41,51.76 163.30,51.50 162.20,51.25 161.11,51.02 160.02,50.79 158.93,50.57 157.86,50.37 156.78,50.17 155.72,49.98 154.66,49.80 153.60,49.64 152.55,49.48 151.50,49.33 150.46,49.19 149.43,49.07 148.40,48.95 147.38,48.84 146.36,48.75 145.35,48.66 144.34,48.58 143.34,48.52 142.34,48.46 141.35,48.42 140.36,48.38 139.38,48.36 138.41,48.35 137.44,48.35 136.47,48.35 135.51,48.37 134.56,48.41 133.61,48.45 132.66,48.50 131.73,48.56 130.79,48.64 129.87,48.73 128.94,48.82 128.03,48.93 127.12,49.05 126.21,49.18 125.31,49.33 124.42,49.48 123.53,49.65 122.65,49.83 121.78,50.02 120.91,50.22 120.04,50.44 119.19,50.66 118.34,50.90 117.49,51.15 116.65,51.42 115.82,51.69 115.00,51.98 114.18,52.28 113.37,52.59 112.56,52.91 111.76,53.25 110.97,53.60 110.19,53.96 109.42,54.34 108.65,54.72 107.89,55.12 107.14,55.53 106.40,55.96 105.66,56.39 104.94,56.84 104.22,57.31 103.51,57.78 102.81,58.26 102.12,58.76 101.44,59.27 100.77,59.79 100.11,60.33 99.46,60.87 98.82,61.43 98.18,62.00 97.56,62.58 96.95,63.18 96.35,63.78 95.76,64.39 95.18,65.02 94.62,65.66 94.06,66.30 93.51,66.96 92.98,67.63 92.46,68.31 91.95,69.00 91.48,69.65 90.21,76.11 90.45,77.13 90.69,78.16 90.94,79.22 91.19,80.30 91.44,81.40 91.70,82.52 91.96,83.66 92.23,84.83 92.49,86.01 92.77,87.21 93.04,88.44 93.32,89.68 93.60,90.94 93.89,92.22 94.18,93.52 94.47,94.83 94.76,96.17 95.06,97.52 95.36,98.88 95.67,100.26 95.98,101.66 96.29,103.07 96.60,104.50 96.91,105.94 97.23,107.40 97.55,108.87 97.88,110.35 98.20,111.85 98.53,113.36 98.86,114.88 99.19,116.42 99.53,117.96 99.86,119.52 100.20,121.09 100.54,122.67 100.89,124.26 101.23,125.85 101.58,127.46 101.93,129.08 102.28,130.70 102.63,132.34 102.99,133.98 103.34,135.63 103.70,137.29 104.06,138.95 104.42,140.62 104.78,142.30 105.14,143.98 105.50,145.67 105.87,147.36 106.23,149.06 106.60,150.76 106.97,152.47 107.34,154.18 107.70,155.89 108.07,157.61 108.44,159.33 108.82,161.05 109.19,162.77 109.56,164.50 109.93,166.22 110.30,167.95 110.68,169.67 111.05,171.40 111.42,173.13 111.80,174.85 112.17,176.58 112.54,178.30 112.92,180.03 113.29,181.75 113.66,183.46 114.03,185.18 114.41,186.89 114.78,188.60 115.15,190.30 115.52,192.00 115.89,193.70 116.26,195.39 116.62,197.07 116.99,198.75 117.36,200.42 117.72,202.09 118.08,203.75 118.45,205.41 118.81,207.05 119.17,208.69 119.53,210.32 119.88,211.94 120.24,213.55 120.59,215.16 120.94,216.75 121.29,218.33 121.64,219.91 121.99,221.47 122.33,223.02 122.68,224.56 123.02,226.09 123.36,227.61 123.69,229.11 124.03,230.60 127.97,229.97 127.83,228.45 127.68,226.91 127.52,225.37 127.37,223.81 127.21,222.24 127.05,220.65 126.89,219.06 126.72,217.46 126.55,215.84 126.38,214.22 126.21,212.58 126.04,210.94 125.86,209.29 125.69,207.63 125.51,205.96 125.32,204.28 125.14,202.60 124.96,200.91 124.77,199.21 124.58,197.50 124.39,195.79 124.19,194.08 124.00,192.35 123.80,190.63 123.60,188.90 123.40,187.16 123.20,185.42 123.00,183.68 122.79,181.94 122.58,180.19 122.37,178.44 122.16,176.69 121.95,174.93 121.74,173.18 121.52,171.42 121.31,169.66 121.09,167.91 120.87,166.15 120.65,164.39 120.42,162.64 120.20,160.88 119.98,159.13 119.75,157.38 119.52,155.63 119.29,153.89 119.06,152.14 118.83,150.40 118.60,148.67 118.37,146.94 118.13,145.21 117.90,143.49 117.66,141.77 117.42,140.06 117.18,138.36 116.95,136.66 116.71,134.96 116.46,133.28 116.22,131.60 115.98,129.93 115.74,128.27 115.49,126.62 115.25,124.97 115.00,123.33 114.76,121.71 114.51,120.09 114.26,118.49 114.01,116.89 113.77,115.31 113.52,113.73 113.27,112.17 113.02,110.62 112.77,109.08 112.52,107.56 112.27,106.05 112.02,104.55 111.77,103.06 111.52,101.59 111.27,100.14 111.01,98.70 110.76,97.27 110.51,95.86 110.26,94.47 110.01,93.09 109.76,91.72 109.51,90.38 109.26,89.05 109.01,87.74 108.76,86.45 108.51,85.18 108.26,83.92 108.01,82.68 107.76,81.47 107.51,80.27 107.26,79.09 107.02,77.93 106.77,76.79 106.52,75.68 106.28,74.58 106.03,73.51 105.79,72.47 104.52,78.93 104.90,78.38 105.26,77.90 105.62,77.42 105.98,76.95 106.35,76.48 106.73,76.02 107.11,75.57 107.49,75.12 107.89,74.68 108.28,74.24 108.69,73.81 109.10,73.39 109.51,72.97 109.94,72.56 110.37,72.15 110.80,71.75 111.25,71.35 111.70,70.96 112.15,70.57 112.62,70.19 113.09,69.81 113.56,69.44 114.05,69.07 114.54,68.71 115.05,68.35 115.56,68.00 116.07,67.65 116.60,67.31 117.13,66.97 117.68,66.64 118.23,66.31 118.79,65.99 119.36,65.68 119.94,65.36 120.52,65.06 121.12,64.76 121.72,64.46 122.34,64.17 122.96,63.89 123.60,63.61 124.24,63.33 124.89,63.07 125.56,62.80 126.23,62.55 126.91,62.30 127.60,62.05 128.31,61.82 129.02,61.59 129.74,61.36 130.47,61.14 131.21,60.93 131.96,60.72 132.73,60.53 133.50,60.33 134.28,60.15 135.07,59.97 135.87,59.80 136.69,59.64 137.51,59.48 138.34,59.33 139.18,59.19 140.04,59.06 140.90,58.93 141.77,58.81 142.65,58.70 143.54,58.60 144.45,58.50 145.36,58.41 146.28,58.33 147.21,58.26 148.15,58.20 149.10,58.15 150.06,58.10 151.03,58.06 152.01,58.03 153.00,58.01 154.00,58.00 155.01,58.00 156.03,58.00 157.06,58.02 158.09,58.04 159.14,58.07 160.19,58.11 161.26,58.16 162.33,58.22 163.42,58.29 164.51,58.36 165.61,58.45 166.72,58.55 167.84,58.65 168.97,58.77 170.10,58.89 171.25,59.02 172.40,59.17 173.57,59.32 174.74,59.48 175.92,59.65 177.11,59.83 178.31,60.03 179.52,60.23" fill="url(#mg)"/>
</svg>