<svg xmlns="http://www.w3.org/2000/svg" viewBox="0 0 512 512" width="512" height="512" role="img" aria-label="LETSSKIPTRACE app icon"><rect width="512" height="512" rx="112" fill="#0F0F0F"/><g transform="translate(96,96) scale(0.625)"><path d="M96.68 454.88 C96.38 453.72 96.09 379.60 96.05 290.18 L95.97 127.59 L132.74 90.78 L169.50 53.96 L170.00 218.73 L170.50 383.50 L255.38 384.00 L340.27 384.50 L303.88 420.74 L267.50 456.98 L182.37 456.99 L97.23 457.00 L96.68 454.88 Z M341.00 355.50 L341.00 329.00 L287.50 329.00 L234.00 329.00 L234.00 266.99 L234.00 204.98 L239.25 209.24 C246.04 214.76 256.56 220.22 266.00 223.13 C271.95 224.96 275.88 225.44 285.00 225.47 C291.32 225.49 298.85 225.15 301.72 224.72 L306.95 223.94 L307.22 239.22 L307.50 254.50 L361.00 255.00 L414.50 255.50 L414.77 282.60 L415.03 309.70 L378.88 345.85 C358.99 365.73 342.33 382.00 341.86 382.00 C341.39 382.00 341.00 370.07 341.00 355.50 Z M369.73 239.18 C340.72 212.98 331.66 205.00 330.86 205.00 C330.34 205.00 327.58 206.58 324.71 208.52 C317.13 213.64 304.96 218.01 294.72 219.30 C268.65 222.59 240.84 208.75 226.78 185.49 C220.60 175.27 217.75 165.23 217.22 151.84 C216.81 141.40 217.04 139.20 219.42 130.84 C226.30 106.68 245.60 87.77 270.00 81.28 C278.98 78.89 296.29 78.99 305.00 81.47 C334.99 90.02 355.15 114.87 356.72 145.20 C357.52 160.52 354.90 172.31 347.98 184.66 L345.09 189.82 L357.68 201.16 C364.61 207.40 373.68 215.53 377.85 219.23 C382.01 222.93 386.06 227.17 386.84 228.66 C388.95 232.70 387.35 237.86 383.10 240.72 C378.11 244.07 374.70 243.68 369.73 239.18 Z M302.30 205.42 C309.93 203.44 314.96 200.90 322.17 195.36 C338.21 183.04 345.89 166.21 344.70 146.01 C343.76 130.04 338.14 118.04 326.50 107.15 C319.93 101.00 309.89 95.39 301.00 92.90 C298.52 92.20 292.00 91.66 286.50 91.69 C270.02 91.77 256.16 97.79 244.96 109.72 C238.30 116.82 231.53 129.55 229.99 137.89 C228.57 145.58 228.79 155.48 230.54 162.90 C235.03 181.95 251.86 199.81 270.31 205.09 C278.35 207.39 294.08 207.55 302.30 205.42 Z M257.00 154.72 L257.00 119.45 L264.30 112.20 C268.32 108.21 271.92 105.25 272.30 105.64 C272.69 106.02 273.00 121.33 273.00 139.67 L273.00 173.00 L290.33 173.00 C299.87 173.00 307.98 173.31 308.36 173.70 C308.75 174.08 305.57 177.91 301.30 182.20 L293.55 190.00 L275.27 190.00 L257.00 190.00 L257.00 154.72 Z M309.73 172.40 C309.33 171.99 309.00 169.32 309.00 166.45 C309.00 160.16 308.72 160.03 295.25 160.01 L286.00 160.00 L286.00 139.46 C286.00 115.76 285.33 116.61 295.70 127.18 C301.43 133.02 301.92 133.88 302.20 138.50 L302.50 143.50 L314.00 144.00 L325.50 144.50 L325.80 150.83 L326.10 157.16 L318.28 165.14 C313.98 169.53 310.13 172.80 309.73 172.40 Z" fill="#FFFFFF" fill-rule="evenodd"/></g></svg>
