<svg xmlns="http://www.w3.org/2000/svg" viewBox="0 0 893.0 246.0" width="893.0" height="246.0" role="img" aria-label="LETSSKIPTRACE">
  <g transform="translate(382.5,0) scale(2.0)">
  <circle cx="32" cy="32" r="22" fill="none" stroke="#FFFFFF" stroke-width="2" opacity="0.35"/>
  <circle cx="32" cy="32" r="14" fill="none" stroke="#FFFFFF" stroke-width="3.2"/>
  <circle cx="32" cy="32" r="5" fill="#FFFFFF"/>
  <g stroke="#FFFFFF" stroke-width="3.2" stroke-linecap="round">
    <line x1="32" y1="18" x2="32" y2="7"/>
    <line x1="46" y1="32" x2="57" y2="32"/>
  </g>
  </g>
  <path d="M7.92 240.0V156.0H23.759999999999998V225.6H62.16V240.0ZM72.96 240.0V156.0H126.95999999999998V170.4H88.79999999999998V190.44H123.6V204.84H88.79999999999998V225.6H127.67999999999999V240.0ZM158.88 240.0V170.4H134.39999999999998V156.0H199.2V170.4H174.71999999999997V240.0ZM239.15999999999997 241.68Q229.44 241.68 222.0 238.2Q214.55999999999997 234.72 210.35999999999999 228.24Q206.16 221.76 206.16 212.64V209.28H221.76V212.64Q221.76 220.2 226.44 223.98Q231.11999999999998 227.76 239.15999999999997 227.76Q247.32 227.76 251.33999999999997 224.51999999999998Q255.35999999999999 221.28 255.35999999999999 216.24Q255.35999999999999 212.76 253.38 210.6Q251.39999999999998 208.44 247.61999999999998 207.06Q243.83999999999997 205.68 238.44 204.48000000000002L235.67999999999998 203.88Q227.04 201.96 220.85999999999999 199.01999999999998Q214.67999999999998 196.07999999999998 211.38 191.28Q208.07999999999998 186.48000000000002 208.07999999999998 178.8Q208.07999999999998 171.12 211.73999999999998 165.66Q215.39999999999998 160.2 222.05999999999997 157.26Q228.71999999999997 154.32 237.71999999999997 154.32Q246.71999999999997 154.32 253.73999999999998 157.38Q260.76 160.44 264.78 166.5Q268.79999999999995 172.56 268.79999999999995 181.68V185.28H253.2V181.68Q253.2 176.88 251.33999999999997 173.94Q249.48 171.0 246.0 169.62Q242.51999999999998 168.24 237.71999999999997 168.24Q230.51999999999998 168.24 227.09999999999997 170.94Q223.67999999999998 173.64 223.67999999999998 178.32Q223.67999999999998 181.44 225.29999999999998 183.6Q226.92 185.76 230.15999999999997 187.2Q233.39999999999998 188.64 238.44 189.72L241.2 190.32Q250.2 192.24 256.86 195.24Q263.52 198.24 267.24 203.16000000000003Q270.96 208.08 270.96 215.76Q270.96 223.44 267.05999999999995 229.26Q263.15999999999997 235.08 256.02 238.38Q248.88 241.68 239.15999999999997 241.68ZM311.87999999999994 241.68Q302.15999999999997 241.68 294.71999999999997 238.2Q287.28 234.72 283.0799999999999 228.24Q278.87999999999994 221.76 278.87999999999994 212.64V209.28H294.47999999999996V212.64Q294.47999999999996 220.2 299.15999999999997 223.98Q303.84 227.76 311.87999999999994 227.76Q320.03999999999996 227.76 324.05999999999995 224.51999999999998Q328.0799999999999 221.28 328.0799999999999 216.24Q328.0799999999999 212.76 326.0999999999999 210.6Q324.11999999999995 208.44 320.3399999999999 207.06Q316.55999999999995 205.68 311.15999999999997 204.48000000000002L308.4 203.88Q299.75999999999993 201.96 293.5799999999999 199.01999999999998Q287.4 196.07999999999998 284.09999999999997 191.28Q280.79999999999995 186.48000000000002 280.79999999999995 178.8Q280.79999999999995 171.12 284.4599999999999 165.66Q288.11999999999995 160.2 294.78 157.26Q301.43999999999994 154.32 310.43999999999994 154.32Q319.43999999999994 154.32 326.4599999999999 157.38Q333.47999999999996 160.44 337.5 166.5Q341.52 172.56 341.52 181.68V185.28H325.91999999999996V181.68Q325.91999999999996 176.88 324.05999999999995 173.94Q322.19999999999993 171.0 318.7199999999999 169.62Q315.23999999999995 168.24 310.43999999999994 168.24Q303.23999999999995 168.24 299.81999999999994 170.94Q296.4 173.64 296.4 178.32Q296.4 181.44 298.02 183.6Q299.63999999999993 185.76 302.87999999999994 187.2Q306.11999999999995 188.64 311.15999999999997 189.72L313.91999999999996 190.32Q322.91999999999996 192.24 329.5799999999999 195.24Q336.23999999999995 198.24 339.9599999999999 203.16000000000003Q343.67999999999995 208.08 343.67999999999995 215.76Q343.67999999999995 223.44 339.78 229.26Q335.87999999999994 235.08 328.73999999999995 238.38Q321.59999999999997 241.68 311.87999999999994 241.68ZM355.44 240.0V156.0H371.28V189.36H373.44L400.67999999999995 156.0H420.96L385.91999999999996 197.4L422.15999999999997 240.0H401.28L373.44 205.92000000000002H371.28V240.0ZM430.56 240.0V156.0H446.4V240.0ZM462.24 240.0V156.0H496.8Q504.71999999999997 156.0 510.78 159.18Q516.84 162.36 520.26 168.12Q523.68 173.88 523.68 181.8V183.48000000000002Q523.68 191.28 520.14 197.10000000000002Q516.6 202.92000000000002 510.54 206.10000000000002Q504.48 209.28 496.8 209.28H478.08V240.0ZM478.08 194.88H495.24Q500.88 194.88 504.36 191.76Q507.84 188.64 507.84 183.24V182.04Q507.84 176.64 504.36 173.51999999999998Q500.88 170.4 495.24 170.4H478.08ZM554.16 240.0V170.4H529.68V156.0H594.4799999999999V170.4H570.0V240.0ZM605.2799999999999 240.0V156.0H641.7599999999999Q649.68 156.0 655.56 158.76Q661.4399999999999 161.51999999999998 664.6799999999998 166.56Q667.9199999999998 171.60000000000002 667.9199999999998 178.44V179.88Q667.9199999999998 187.44 664.3199999999999 192.12Q660.7199999999999 196.8 655.4399999999999 198.96V201.12Q660.2399999999999 201.36 662.8799999999999 204.42000000000002Q665.5199999999999 207.48000000000002 665.5199999999999 212.52V240.0H649.68V214.8Q649.68 211.92000000000002 648.18 210.12Q646.68 208.32 643.1999999999999 208.32H621.1199999999999V240.0ZM621.1199999999999 193.92000000000002H640.0799999999999Q645.7199999999999 193.92000000000002 648.8999999999999 190.86Q652.0799999999999 187.8 652.0799999999999 182.76V181.56Q652.0799999999999 176.52 648.9599999999999 173.46Q645.8399999999999 170.4 640.0799999999999 170.4H621.1199999999999ZM675.3599999999999 240.0 697.4399999999999 156.0H725.04L747.1199999999999 240.0H730.8L726.2399999999999 221.52H696.2399999999999L691.68 240.0ZM699.9599999999999 206.88H722.52L712.3199999999999 165.96H710.16ZM789.12 241.68Q773.52 241.68 764.4 232.98000000000002Q755.28 224.28 755.28 208.08V187.92000000000002Q755.28 171.72 764.4 163.01999999999998Q773.52 154.32 789.12 154.32Q804.6 154.32 813.06 162.78Q821.52 171.24 821.52 186.0V186.72H805.92V185.52Q805.92 178.08 801.78 173.28000000000003Q797.64 168.48000000000002 789.12 168.48000000000002Q780.72 168.48000000000002 775.9200000000001 173.64000000000001Q771.12 178.8 771.12 187.68V208.32Q771.12 217.08 775.9200000000001 222.3Q780.72 227.52 789.12 227.52Q797.64 227.52 801.78 222.66000000000003Q805.92 217.8 805.92 210.48V208.32H821.52V210.0Q821.52 224.76 813.06 233.22Q804.6 241.68 789.12 241.68ZM834.4799999999999 240.0V156.0H888.4799999999999V170.4H850.3199999999999V190.44H885.1199999999999V204.84H850.3199999999999V225.6H889.1999999999999V240.0Z" fill="#FFFFFF"/>
</svg>
