<svg xmlns="http://www.w3.org/2000/svg" viewBox="0 0 1029.0 104.0" width="1029.0" height="104.0" role="img" aria-label="LETSSKIPTRACE">
  <defs>
    <linearGradient id="lstMark" x1="9.75" y1="94.25" x2="94.25" y2="9.75" gradientUnits="userSpaceOnUse"><stop offset="0" stop-color="#4F72FF"/><stop offset="1" stop-color="#00D4FF"/></linearGradient>
    <linearGradient id="lstWord" x1="662.8" y1="94.0" x2="1029.0" y2="10.0" gradientUnits="userSpaceOnUse"><stop offset="0" stop-color="#4F72FF"/><stop offset="1" stop-color="#00D4FF"/></linearGradient>
  </defs>
  <g transform="scale(1.625)">
  <circle cx="32" cy="32" r="22" fill="none" stroke="url(#lstMark)" stroke-width="2" opacity="0.35"/>
  <circle cx="32" cy="32" r="14" fill="none" stroke="url(#lstMark)" stroke-width="3.2"/>
  <circle cx="32" cy="32" r="5" fill="url(#lstMark)"/>
  <g stroke="url(#lstMark)" stroke-width="3.2" stroke-linecap="round">
    <line x1="32" y1="18" x2="32" y2="7"/>
    <line x1="46" y1="32" x2="57" y2="32"/>
  </g>
  </g>
  <path d="M143.92 94.0V10.0H159.76V79.6H198.16V94.0ZM208.95999999999998 94.0V10.0H262.96V24.400000000000006H224.79999999999998V44.440000000000005H259.59999999999997V58.84H224.79999999999998V79.6H263.68V94.0ZM294.88 94.0V24.400000000000006H270.4V10.0H335.2V24.400000000000006H310.71999999999997V94.0ZM375.15999999999997 95.68Q365.44 95.68 358.0 92.2Q350.56 88.72 346.36 82.24000000000001Q342.15999999999997 75.76 342.15999999999997 66.64V63.28H357.76V66.64Q357.76 74.2 362.44 77.98Q367.12 81.76 375.15999999999997 81.76Q383.32 81.76 387.34000000000003 78.52000000000001Q391.36 75.28 391.36 70.24000000000001Q391.36 66.76 389.38 64.6Q387.4 62.44 383.62 61.06Q379.84 59.68 374.44 58.480000000000004L371.68 57.88Q363.03999999999996 55.96 356.86 53.019999999999996Q350.68 50.08 347.38 45.28Q344.08 40.480000000000004 344.08 32.800000000000004Q344.08 25.120000000000005 347.74 19.660000000000004Q351.4 14.200000000000003 358.05999999999995 11.260000000000005Q364.71999999999997 8.320000000000007 373.71999999999997 8.320000000000007Q382.71999999999997 8.320000000000007 389.74 11.380000000000003Q396.76 14.439999999999998 400.78 20.5Q404.79999999999995 26.560000000000002 404.79999999999995 35.68V39.28H389.2V35.68Q389.2 30.880000000000003 387.34 27.94Q385.47999999999996 25.0 382.0 23.620000000000005Q378.52 22.24000000000001 373.71999999999997 22.24000000000001Q366.52 22.24000000000001 363.1 24.940000000000005Q359.68 27.64 359.68 32.32Q359.68 35.440000000000005 361.29999999999995 37.60000000000001Q362.91999999999996 39.760000000000005 366.15999999999997 41.2Q369.4 42.64 374.44 43.72L377.2 44.32Q386.2 46.24 392.86 49.24Q399.52 52.24 403.24 57.16Q406.96 62.08 406.96 69.76Q406.96 77.44 403.05999999999995 83.25999999999999Q399.15999999999997 89.08 392.02 92.38Q384.88 95.68 375.15999999999997 95.68ZM447.87999999999994 95.68Q438.15999999999997 95.68 430.71999999999997 92.2Q423.28 88.72 419.0799999999999 82.24000000000001Q414.87999999999994 75.76 414.87999999999994 66.64V63.28H430.47999999999996V66.64Q430.47999999999996 74.2 435.15999999999997 77.98Q439.84 81.76 447.87999999999994 81.76Q456.03999999999996 81.76 460.05999999999995 78.52000000000001Q464.0799999999999 75.28 464.0799999999999 70.24000000000001Q464.0799999999999 66.76 462.0999999999999 64.6Q460.11999999999995 62.44 456.3399999999999 61.06Q452.55999999999995 59.68 447.15999999999997 58.480000000000004L444.4 57.88Q435.75999999999993 55.96 429.5799999999999 53.019999999999996Q423.4 50.08 420.09999999999997 45.28Q416.79999999999995 40.480000000000004 416.79999999999995 32.800000000000004Q416.79999999999995 25.120000000000005 420.4599999999999 19.660000000000004Q424.11999999999995 14.200000000000003 430.78 11.260000000000005Q437.43999999999994 8.320000000000007 446.43999999999994 8.320000000000007Q455.43999999999994 8.320000000000007 462.4599999999999 11.380000000000003Q469.47999999999996 14.439999999999998 473.5 20.5Q477.52 26.560000000000002 477.52 35.68V39.28H461.91999999999996V35.68Q461.91999999999996 30.880000000000003 460.05999999999995 27.94Q458.19999999999993 25.0 454.7199999999999 23.620000000000005Q451.23999999999995 22.24000000000001 446.43999999999994 22.24000000000001Q439.23999999999995 22.24000000000001 435.81999999999994 24.940000000000005Q432.4 27.64 432.4 32.32Q432.4 35.440000000000005 434.02 37.60000000000001Q435.63999999999993 39.760000000000005 438.87999999999994 41.2Q442.11999999999995 42.64 447.15999999999997 43.72L449.91999999999996 44.32Q458.91999999999996 46.24 465.5799999999999 49.24Q472.23999999999995 52.24 475.9599999999999 57.16Q479.67999999999995 62.08 479.67999999999995 69.76Q479.67999999999995 77.44 475.78 83.25999999999999Q471.87999999999994 89.08 464.73999999999995 92.38Q457.59999999999997 95.68 447.87999999999994 95.68ZM491.44 94.0V10.0H507.28V43.36H509.44L536.68 10.0H556.96L521.92 51.4L558.16 94.0H537.28L509.44 59.92H507.28V94.0ZM566.56 94.0V10.0H582.4V94.0ZM598.2399999999999 94.0V10.0H632.8Q640.7199999999999 10.0 646.78 13.18Q652.8399999999999 16.36 656.26 22.119999999999997Q659.68 27.879999999999995 659.68 35.800000000000004V37.480000000000004Q659.68 45.28 656.1399999999999 51.1Q652.5999999999999 56.92 646.54 60.1Q640.4799999999999 63.28 632.8 63.28H614.0799999999999V94.0ZM614.0799999999999 48.88H631.2399999999999Q636.8799999999999 48.88 640.3599999999999 45.760000000000005Q643.8399999999999 42.64 643.8399999999999 37.24V36.04Q643.8399999999999 30.64 640.3599999999999 27.520000000000003Q636.8799999999999 24.400000000000006 631.2399999999999 24.400000000000006H614.0799999999999Z" fill="#FFFFFF"/>
  <path d="M690.16 94.0V24.400000000000006H665.68V10.0H730.4799999999999V24.400000000000006H706.0V94.0ZM741.2799999999999 94.0V10.0H777.7599999999999Q785.68 10.0 791.56 12.759999999999998Q797.4399999999999 15.519999999999996 800.6799999999998 20.560000000000002Q803.9199999999998 25.60000000000001 803.9199999999998 32.440000000000005V33.88Q803.9199999999998 41.440000000000005 800.3199999999999 46.120000000000005Q796.7199999999999 50.800000000000004 791.4399999999999 52.96V55.120000000000005Q796.2399999999999 55.36 798.8799999999999 58.42Q801.5199999999999 61.480000000000004 801.5199999999999 66.52V94.0H785.68V68.8Q785.68 65.92 784.18 64.12Q782.68 62.32 779.1999999999999 62.32H757.1199999999999V94.0ZM757.1199999999999 47.92H776.0799999999999Q781.7199999999999 47.92 784.8999999999999 44.86Q788.0799999999999 41.800000000000004 788.0799999999999 36.760000000000005V35.56Q788.0799999999999 30.520000000000003 784.9599999999999 27.460000000000004Q781.8399999999999 24.400000000000006 776.0799999999999 24.400000000000006H757.1199999999999ZM811.3599999999999 94.0 833.4399999999999 10.0H861.04L883.1199999999999 94.0H866.8L862.2399999999999 75.52H832.2399999999999L827.68 94.0ZM835.9599999999999 60.88H858.52L848.3199999999999 19.960000000000008H846.16ZM925.12 95.68Q909.52 95.68 900.4 86.98Q891.28 78.28 891.28 62.08V41.92Q891.28 25.72 900.4 17.020000000000003Q909.52 8.320000000000007 925.12 8.320000000000007Q940.6 8.320000000000007 949.06 16.78000000000001Q957.52 25.24000000000001 957.52 40.0V40.72H941.92V39.52Q941.92 32.080000000000005 937.78 27.280000000000005Q933.64 22.480000000000004 925.12 22.480000000000004Q916.72 22.480000000000004 911.9200000000001 27.640000000000004Q907.12 32.800000000000004 907.12 41.68V62.32Q907.12 71.08 911.9200000000001 76.3Q916.72 81.52 925.12 81.52Q933.64 81.52 937.78 76.66Q941.92 71.8 941.92 64.48V62.32H957.52V64.0Q957.52 78.76 949.06 87.22Q940.6 95.68 925.12 95.68ZM970.4799999999999 94.0V10.0H1024.48V24.400000000000006H986.3199999999999V44.440000000000005H1021.1199999999999V58.84H986.3199999999999V79.6H1025.2V94.0Z" fill="url(#lstWord)"/>
</svg>
