<svg xmlns="http://www.w3.org/2000/svg" viewBox="0 0 1239.0 240.0" width="1239.0" height="240.0" role="img" aria-label="LETSSKIPTRACE"><g transform="translate(0.0,0.0) scale(0.6741573033707865)"><path d="M6.67 348.33 C6.30 347.97 6.00 285.08 6.00 208.58 L6.00 69.49 L37.50 38.00 L69.00 6.51 L69.00 146.76 L69.00 287.00 L141.00 287.00 C180.60 287.00 213.00 287.34 213.00 287.76 C213.00 288.17 199.38 302.12 182.74 318.76 L152.49 349.00 L79.91 349.00 C39.99 349.00 7.03 348.70 6.67 348.33 Z M214.00 263.00 L214.00 240.00 L168.50 240.00 L123.00 240.00 L123.00 187.48 L123.00 134.95 L128.25 139.13 C135.10 144.59 145.55 149.36 155.43 151.53 C162.72 153.14 171.17 153.20 183.50 151.74 C185.40 151.51 185.51 152.17 185.78 164.75 L186.06 178.00 L231.53 178.00 L277.00 178.00 L277.00 201.26 L277.00 224.51 L246.24 255.26 C229.33 272.17 215.15 286.00 214.74 286.00 C214.33 286.00 214.00 275.65 214.00 263.00 Z M230.25 156.54 C223.79 150.78 215.80 143.60 212.50 140.58 C209.20 137.55 206.13 135.06 205.68 135.04 C205.23 135.02 202.98 136.28 200.68 137.85 C194.50 142.07 183.98 145.93 175.20 147.21 C168.76 148.15 165.94 148.06 158.48 146.70 C145.29 144.28 136.52 139.59 126.45 129.60 C114.04 117.27 109.00 105.11 109.00 87.52 C109.00 76.48 111.20 67.93 116.48 58.42 C127.05 39.40 150.53 26.68 171.89 28.40 C189.33 29.81 203.62 37.19 214.64 50.50 C229.38 68.30 232.01 93.73 221.31 115.11 C217.85 122.02 217.81 122.25 219.63 123.96 C220.66 124.93 228.39 131.91 236.82 139.47 C245.25 147.03 252.62 154.26 253.20 155.54 C255.52 160.64 251.15 167.00 245.31 167.00 C242.53 167.00 240.15 165.34 230.25 156.54 Z M186.00 134.02 C192.48 131.47 202.64 123.96 207.11 118.42 C215.25 108.32 219.19 93.49 217.11 80.75 C214.08 62.22 202.47 48.16 184.73 41.53 C175.35 38.03 161.98 37.95 152.62 41.35 C128.21 50.21 114.46 74.57 120.08 98.97 C123.93 115.69 138.43 130.80 155.10 135.48 C162.83 137.64 178.70 136.89 186.00 134.02 Z M143.00 92.22 L143.00 62.44 L149.50 56.00 L156.00 49.56 L156.00 78.78 L156.00 108.00 L171.50 108.00 C180.03 108.00 187.00 108.35 187.00 108.78 C187.00 109.21 184.18 112.36 180.72 115.78 L174.45 122.00 L158.72 122.00 L143.00 122.00 L143.00 92.22 Z M187.59 107.26 C187.26 106.93 187.00 104.49 187.00 101.83 L187.00 97.00 L177.00 97.00 L167.00 97.00 L167.00 79.50 C167.00 69.88 167.35 62.00 167.78 62.00 C168.21 62.00 171.36 64.82 174.78 68.28 C180.43 73.98 181.00 74.94 181.00 78.78 L181.00 83.00 L191.00 83.00 L201.00 83.00 L200.99 88.75 C200.98 94.45 200.93 94.56 194.58 101.17 C191.06 104.84 187.91 107.58 187.59 107.26 Z" fill="#FFFFFF" fill-rule="evenodd"/></g><path d="M295.57557935393254 163.65234375V76.34765625H311.22011060393254V150.46875H349.77479810393254V163.65234375Z" fill="#8A8A8A"/><path d="M361.02714185393256 163.65234375V76.34765625H417.74589185393256V89.53125H376.67167310393256V113.0859375H414.69901685393256V126.09375H376.67167310393256V150.46875H417.98026685393256V163.65234375Z" fill="#8A8A8A"/><path d="M427.3576106039326 89.53125V76.34765625H496.8497981039326V89.53125H469.9552668539326V163.65234375H454.3107356039326V89.53125Z" fill="#8A8A8A"/><path d="M538.7466731039326 165.0Q528.6099543539326 165.0 521.1392512289326 161.8359375Q513.6685481039326 158.671875 509.4497981039326 152.63671875Q505.2310481039326 146.6015625 504.8794856039326 137.98828125H520.2896418539326Q520.6997981039326 142.55859375 523.1607356039326 145.60546875Q525.6216731039326 148.65234375 529.6646418539326 150.146484375Q533.7076106039326 151.640625 538.6294856039326 151.640625Q543.7857356039326 151.640625 547.7408137289326 150.05859375Q551.6958918539326 148.4765625 553.9224543539326 145.634765625Q556.1490168539326 142.79296875 556.1490168539326 139.04296875Q556.1490168539326 135.64453125 554.1861262289326 133.41796875Q552.2232356039326 131.19140625 548.6783137289326 129.638671875Q545.1333918539326 128.0859375 540.3872981039326 126.9140625L530.4849543539326 124.3359375Q519.5279231039326 121.5234375 513.4048762289326 115.83984375Q507.2818293539326 110.15625 507.2818293539326 100.8984375Q507.2818293539326 93.1640625 511.4419856039326 87.36328125Q515.6021418539326 81.5625 522.8091731039326 78.369140625Q530.0162043539326 75.17578125 539.1568293539326 75.17578125Q548.4732356039326 75.17578125 555.5044856039326 78.3984375Q562.5357356039326 81.62109375 566.4908137289326 87.3046875Q570.4458918539326 92.98828125 570.6216731039326 100.25390625H555.4458918539326Q554.8599543539326 94.62890625 550.4361262289326 91.552734375Q546.0122981039326 88.4765625 538.9224543539326 88.4765625Q534.0005793539326 88.4765625 530.4556574789326 89.970703125Q526.9107356039326 91.46484375 525.0064387289326 94.04296875Q523.1021418539326 96.62109375 523.1021418539326 99.9609375Q523.1021418539326 103.59375 525.3580012289326 105.9375Q527.6138606039326 108.28125 531.0415949789326 109.6875Q534.4693293539326 111.09375 537.9849543539326 111.97265625L546.1294856039326 114.08203125Q550.9927668539326 115.25390625 555.5630793539326 117.1875Q560.1333918539326 119.12109375 563.7955012289326 122.080078125Q567.4576106039326 125.0390625 569.6255793539326 129.2578125Q571.7935481039326 133.4765625 571.7935481039326 139.16015625Q571.7935481039326 146.8359375 567.8677668539326 152.666015625Q563.9419856039326 158.49609375 556.5591731039326 161.748046875Q549.1763606039326 165.0 538.7466731039326 165.0Z" fill="#8A8A8A"/><path d="M614.3935481039326 165.0Q604.2568293539326 165.0 596.7861262289326 161.8359375Q589.3154231039326 158.671875 585.0966731039326 152.63671875Q580.8779231039326 146.6015625 580.5263606039326 137.98828125H595.9365168539326Q596.3466731039326 142.55859375 598.8076106039326 145.60546875Q601.2685481039326 148.65234375 605.3115168539326 150.146484375Q609.3544856039326 151.640625 614.2763606039326 151.640625Q619.4326106039326 151.640625 623.3876887289326 150.05859375Q627.3427668539326 148.4765625 629.5693293539326 145.634765625Q631.7958918539326 142.79296875 631.7958918539326 139.04296875Q631.7958918539326 135.64453125 629.8330012289326 133.41796875Q627.8701106039326 131.19140625 624.3251887289326 129.638671875Q620.7802668539326 128.0859375 616.0341731039326 126.9140625L606.1318293539326 124.3359375Q595.1747981039326 121.5234375 589.0517512289326 115.83984375Q582.9287043539326 110.15625 582.9287043539326 100.8984375Q582.9287043539326 93.1640625 587.0888606039326 87.36328125Q591.2490168539326 81.5625 598.4560481039326 78.369140625Q605.6630793539326 75.17578125 614.8037043539326 75.17578125Q624.1201106039326 75.17578125 631.1513606039326 78.3984375Q638.1826106039326 81.62109375 642.1376887289326 87.3046875Q646.0927668539326 92.98828125 646.2685481039326 100.25390625H631.0927668539326Q630.5068293539326 94.62890625 626.0830012289326 91.552734375Q621.6591731039326 88.4765625 614.5693293539326 88.4765625Q609.6474543539326 88.4765625 606.1025324789326 89.970703125Q602.5576106039326 91.46484375 600.6533137289326 94.04296875Q598.7490168539326 96.62109375 598.7490168539326 99.9609375Q598.7490168539326 103.59375 601.0048762289326 105.9375Q603.2607356039326 108.28125 606.6884699789326 109.6875Q610.1162043539326 111.09375 613.6318293539326 111.97265625L621.7763606039326 114.08203125Q626.6396418539326 115.25390625 631.2099543539326 117.1875Q635.7802668539326 119.12109375 639.4423762289326 122.080078125Q643.1044856039326 125.0390625 645.2724543539326 129.2578125Q647.4404231039326 133.4765625 647.4404231039326 139.16015625Q647.4404231039326 146.8359375 643.5146418539326 152.666015625Q639.5888606039326 158.49609375 632.2060481039326 161.748046875Q624.8232356039326 165.0 614.3935481039326 165.0Z" fill="#8A8A8A"/><path d="M670.7044856039327 142.1484375V127.32421875Q673.5169856039327 122.75390625 676.2415949789327 118.740234375Q678.9662043539327 114.7265625 682.0423762289327 110.80078125Q685.1185481039327 106.875 688.9271418539327 102.48046875L711.8372981039327 76.34765625H731.2904231039327L694.2591731039327 118.125L693.0872981039327 117.71484375ZM659.3958918539327 163.65234375V76.34765625H675.0404231039327V102.24609375L674.7474543539327 123.28125L675.0404231039327 130.95703125V163.65234375ZM713.4193293539327 163.65234375 685.6458918539327 122.578125 695.4896418539327 110.80078125 731.8763606039327 163.65234375Z" fill="#8A8A8A"/><path d="M757.0154231039327 76.34765625V163.65234375H741.3708918539327V76.34765625Z" fill="#8A8A8A"/><path d="M772.1935481039327 163.65234375V76.34765625H804.8302668539327Q814.8497981039327 76.34765625 821.7052668539327 80.09765625Q828.5607356039327 83.84765625 832.0763606039327 90.380859375Q835.5919856039327 96.9140625 835.5919856039327 105.234375Q835.5919856039327 113.61328125 832.0470637289327 120.1171875Q828.5021418539327 126.62109375 821.5880793539327 130.37109375Q814.6740168539327 134.12109375 804.5958918539327 134.12109375H782.9747981039327V121.23046875H802.5451106039327Q808.4630793539327 121.23046875 812.2423762289327 119.1796875Q816.0216731039327 117.12890625 817.8087824789327 113.49609375Q819.5958918539327 109.86328125 819.5958918539327 105.234375Q819.5958918539327 100.60546875 817.8087824789327 97.03125Q816.0216731039327 93.45703125 812.2130793539327 91.46484375Q808.4044856039327 89.47265625 802.4279231039327 89.47265625H787.8380793539327V163.65234375Z" fill="#8A8A8A"/><path d="M842.8013606039327 91.171875V76.34765625H914.1099543539327V91.171875H887.4497981039327V163.65234375H869.5201106039327V91.171875Z" fill="#FFFFFF"/><path d="M924.0146418539327 163.65234375V76.34765625H958.0576106039327Q968.0185481039327 76.34765625 974.9912043539327 79.86328125Q981.9638606039327 83.37890625 985.6259699789327 89.765625Q989.2880793539327 96.15234375 989.2880793539327 104.765625Q989.2880793539327 113.37890625 985.5673762289327 119.619140625Q981.8466731039327 125.859375 974.7861262289327 129.169921875Q967.7255793539327 132.48046875 957.6474543539327 132.48046875H934.5615168539327V118.0078125H954.7763606039327Q960.2841731039327 118.0078125 963.7997981039327 116.513671875Q967.3154231039327 115.01953125 969.0732356039327 112.060546875Q970.8310481039327 109.1015625 970.8310481039327 104.765625Q970.8310481039327 100.3125 969.0732356039327 97.294921875Q967.3154231039327 94.27734375 963.7705012289327 92.6953125Q960.2255793539327 91.11328125 954.7177668539327 91.11328125H941.8857356039327V163.65234375ZM972.5888606039327 163.65234375 951.3193293539327 123.92578125H970.7138606039327L992.3935481039327 163.65234375Z" fill="#FFFFFF"/><path d="M995.3841731039328 163.65234375 1025.2083918539329 76.34765625H1048.6458918539329L1079.2318293539329 163.65234375H1059.3685481039329L1045.3646418539329 121.5234375Q1042.8451106039329 113.37890625 1040.2376887289329 103.681640625Q1037.6302668539329 93.984375 1034.7591731039329 82.5H1038.6849543539329Q1035.8724543539329 94.04296875 1033.4408137289329 103.798828125Q1031.0091731039329 113.5546875 1028.6068293539329 121.5234375L1015.1302668539328 163.65234375ZM1014.0169856039328 143.37890625V129.375H1060.5990168539329V143.37890625Z" fill="#FFFFFF"/><path d="M1125.7576106039328 164.82421875Q1114.1560481039328 164.82421875 1104.9861262289328 159.55078125Q1095.8162043539328 154.27734375 1090.5134699789328 144.2578125Q1085.2107356039328 134.23828125 1085.2107356039328 120.05859375Q1085.2107356039328 105.8203125 1090.5427668539328 95.771484375Q1095.8747981039328 85.72265625 1105.0740168539328 80.44921875Q1114.2732356039328 75.17578125 1125.7576106039328 75.17578125Q1133.1990168539328 75.17578125 1139.6150324789328 77.255859375Q1146.0310481039328 79.3359375 1151.0115168539328 83.3203125Q1155.9919856039328 87.3046875 1159.1560481039328 93.076171875Q1162.3201106039328 98.84765625 1163.3162043539328 106.23046875H1145.2107356039328Q1144.6247981039328 102.59765625 1142.9548762289328 99.814453125Q1141.2849543539328 97.03125 1138.7947199789328 95.068359375Q1136.3044856039328 93.10546875 1133.0818293539328 92.080078125Q1129.8591731039328 91.0546875 1126.1091731039328 91.0546875Q1119.3122981039328 91.0546875 1114.1853449789328 94.453125Q1109.0583918539328 97.8515625 1106.2165949789328 104.326171875Q1103.3747981039328 110.80078125 1103.3747981039328 120.05859375Q1103.3747981039328 129.4921875 1106.2458918539328 135.9375Q1109.1169856039328 142.3828125 1114.2146418539328 145.6640625Q1119.3122981039328 148.9453125 1126.0505793539328 148.9453125Q1129.8005793539328 148.9453125 1132.9939387289328 147.919921875Q1136.1872981039328 146.89453125 1138.7361262289328 144.931640625Q1141.2849543539328 142.96875 1142.9548762289328 140.15625Q1144.6247981039328 137.34375 1145.2693293539328 133.76953125H1163.3747981039328Q1162.6716731039328 139.86328125 1159.7712824789328 145.4296875Q1156.8708918539328 150.99609375 1152.0662043539328 155.390625Q1147.2615168539328 159.78515625 1140.6404231039328 162.3046875Q1134.0193293539328 164.82421875 1125.7576106039328 164.82421875Z" fill="#FFFFFF"/><path d="M1173.9826106039327 163.65234375V76.34765625H1232.4005793539327V91.171875H1191.8537043539327V112.265625H1229.3537043539327V126.85546875H1191.8537043539327V148.828125H1232.5177668539327V163.65234375Z" fill="#FFFFFF"/></svg>
