<svg xmlns="http://www.w3.org/2000/svg" viewBox="0 0 283 356" width="283" height="356" role="img" aria-label="LETSSKIPTRACE mark"><path d="M6.67 348.33 C6.30 347.97 6.00 285.08 6.00 208.58 L6.00 69.49 L37.50 38.00 L69.00 6.51 L69.00 146.76 L69.00 287.00 L141.00 287.00 C180.60 287.00 213.00 287.34 213.00 287.76 C213.00 288.17 199.38 302.12 182.74 318.76 L152.49 349.00 L79.91 349.00 C39.99 349.00 7.03 348.70 6.67 348.33 Z M214.00 263.00 L214.00 240.00 L168.50 240.00 L123.00 240.00 L123.00 187.48 L123.00 134.95 L128.25 139.13 C135.10 144.59 145.55 149.36 155.43 151.53 C162.72 153.14 171.17 153.20 183.50 151.74 C185.40 151.51 185.51 152.17 185.78 164.75 L186.06 178.00 L231.53 178.00 L277.00 178.00 L277.00 201.26 L277.00 224.51 L246.24 255.26 C229.33 272.17 215.15 286.00 214.74 286.00 C214.33 286.00 214.00 275.65 214.00 263.00 Z M230.25 156.54 C223.79 150.78 215.80 143.60 212.50 140.58 C209.20 137.55 206.13 135.06 205.68 135.04 C205.23 135.02 202.98 136.28 200.68 137.85 C194.50 142.07 183.98 145.93 175.20 147.21 C168.76 148.15 165.94 148.06 158.48 146.70 C145.29 144.28 136.52 139.59 126.45 129.60 C114.04 117.27 109.00 105.11 109.00 87.52 C109.00 76.48 111.20 67.93 116.48 58.42 C127.05 39.40 150.53 26.68 171.89 28.40 C189.33 29.81 203.62 37.19 214.64 50.50 C229.38 68.30 232.01 93.73 221.31 115.11 C217.85 122.02 217.81 122.25 219.63 123.96 C220.66 124.93 228.39 131.91 236.82 139.47 C245.25 147.03 252.62 154.26 253.20 155.54 C255.52 160.64 251.15 167.00 245.31 167.00 C242.53 167.00 240.15 165.34 230.25 156.54 Z M186.00 134.02 C192.48 131.47 202.64 123.96 207.11 118.42 C215.25 108.32 219.19 93.49 217.11 80.75 C214.08 62.22 202.47 48.16 184.73 41.53 C175.35 38.03 161.98 37.95 152.62 41.35 C128.21 50.21 114.46 74.57 120.08 98.97 C123.93 115.69 138.43 130.80 155.10 135.48 C162.83 137.64 178.70 136.89 186.00 134.02 Z M143.00 92.22 L143.00 62.44 L149.50 56.00 L156.00 49.56 L156.00 78.78 L156.00 108.00 L171.50 108.00 C180.03 108.00 187.00 108.35 187.00 108.78 C187.00 109.21 184.18 112.36 180.72 115.78 L174.45 122.00 L158.72 122.00 L143.00 122.00 L143.00 92.22 Z M187.59 107.26 C187.26 106.93 187.00 104.49 187.00 101.83 L187.00 97.00 L177.00 97.00 L167.00 97.00 L167.00 79.50 C167.00 69.88 167.35 62.00 167.78 62.00 C168.21 62.00 171.36 64.82 174.78 68.28 C180.43 73.98 181.00 74.94 181.00 78.78 L181.00 83.00 L191.00 83.00 L201.00 83.00 L200.99 88.75 C200.98 94.45 200.93 94.56 194.58 101.17 C191.06 104.84 187.91 107.58 187.59 107.26 Z" fill="#000000" fill-rule="evenodd"/></svg>
