<svg xmlns="http://www.w3.org/2000/svg" viewBox="0 0 972.2 107.3" width="972.2" height="107.3" role="img" aria-label="LETSSKIPTRACE"><path d="M18.7890625 97.3046875V10.0H34.43359375V84.12109375H72.98828125V97.3046875Z" fill="#8A8A8A"/><path d="M84.240625 97.3046875V10.0H140.959375V23.18359375H99.88515625V46.73828125H137.9125V59.74609375H99.88515625V84.12109375H141.19375V97.3046875Z" fill="#8A8A8A"/><path d="M150.57109375 23.18359375V10.0H220.06328125V23.18359375H193.16875V97.3046875H177.52421875V23.18359375Z" fill="#8A8A8A"/><path d="M261.96015624999995 98.65234375Q251.82343749999998 98.65234375 244.35273437499998 95.48828125Q236.88203124999998 92.32421875 232.66328124999998 86.2890625Q228.44453124999998 80.25390625 228.09296874999998 71.640625H243.50312499999998Q243.91328124999998 76.2109375 246.37421874999998 79.2578125Q248.83515624999998 82.3046875 252.87812499999995 83.798828125Q256.92109374999995 85.29296875 261.84296874999995 85.29296875Q266.99921874999995 85.29296875 270.95429687499995 83.7109375Q274.90937499999995 82.12890625 277.13593749999995 79.287109375Q279.36249999999995 76.4453125 279.36249999999995 72.6953125Q279.36249999999995 69.296875 277.39960937499995 67.0703125Q275.43671874999995 64.84375 271.89179687499995 63.291015625Q268.34687499999995 61.73828125 263.60078124999995 60.56640625L253.69843749999998 57.98828125Q242.74140624999998 55.17578125 236.61835937499998 49.4921875Q230.49531249999998 43.80859375 230.49531249999998 34.55078125Q230.49531249999998 26.81640625 234.65546874999998 21.015625Q238.81562499999998 15.21484375 246.02265624999998 12.021484375Q253.22968749999998 8.828125 262.37031249999995 8.828125Q271.68671874999995 8.828125 278.71796874999995 12.05078125Q285.74921874999995 15.2734375 289.70429687499995 20.95703125Q293.65937499999995 26.640625 293.83515624999995 33.90625H278.65937499999995Q278.07343749999995 28.28125 273.64960937499995 25.205078125Q269.22578124999995 22.12890625 262.13593749999995 22.12890625Q257.21406249999995 22.12890625 253.66914062499995 23.623046875Q250.12421874999998 25.1171875 248.21992187499998 27.6953125Q246.31562499999998 30.2734375 246.31562499999998 33.61328125Q246.31562499999998 37.24609375 248.57148437499998 39.58984375Q250.82734374999998 41.93359375 254.25507812499995 43.33984375Q257.68281249999995 44.74609375 261.19843749999995 45.625L269.34296874999995 47.734375Q274.20624999999995 48.90625 278.77656249999995 50.83984375Q283.34687499999995 52.7734375 287.00898437499995 55.732421875Q290.67109374999995 58.69140625 292.83906249999995 62.91015625Q295.00703124999995 67.12890625 295.00703124999995 72.8125Q295.00703124999995 80.48828125 291.08124999999995 86.318359375Q287.15546874999995 92.1484375 279.77265624999995 95.400390625Q272.38984374999995 98.65234375 261.96015624999995 98.65234375Z" fill="#8A8A8A"/><path d="M337.60703125 98.65234375Q327.4703125 98.65234375 319.999609375 95.48828125Q312.52890625 92.32421875 308.31015625 86.2890625Q304.09140625 80.25390625 303.73984375 71.640625H319.15Q319.56015625 76.2109375 322.02109375 79.2578125Q324.48203125 82.3046875 328.525 83.798828125Q332.56796875 85.29296875 337.48984375 85.29296875Q342.64609375 85.29296875 346.601171875 83.7109375Q350.55625 82.12890625 352.7828125 79.287109375Q355.009375 76.4453125 355.009375 72.6953125Q355.009375 69.296875 353.046484375 67.0703125Q351.08359375 64.84375 347.538671875 63.291015625Q343.99375 61.73828125 339.24765625 60.56640625L329.3453125 57.98828125Q318.38828125 55.17578125 312.265234375 49.4921875Q306.1421875 43.80859375 306.1421875 34.55078125Q306.1421875 26.81640625 310.30234375 21.015625Q314.4625 15.21484375 321.66953125 12.021484375Q328.8765625 8.828125 338.0171875 8.828125Q347.33359375 8.828125 354.36484375 12.05078125Q361.39609375 15.2734375 365.351171875 20.95703125Q369.30625 26.640625 369.48203125 33.90625H354.30625Q353.7203125 28.28125 349.296484375 25.205078125Q344.87265625 22.12890625 337.7828125 22.12890625Q332.8609375 22.12890625 329.316015625 23.623046875Q325.77109375 25.1171875 323.866796875 27.6953125Q321.9625 30.2734375 321.9625 33.61328125Q321.9625 37.24609375 324.218359375 39.58984375Q326.47421875 41.93359375 329.901953125 43.33984375Q333.3296875 44.74609375 336.8453125 45.625L344.98984375 47.734375Q349.853125 48.90625 354.4234375 50.83984375Q358.99375 52.7734375 362.655859375 55.732421875Q366.31796875 58.69140625 368.4859375 62.91015625Q370.65390625 67.12890625 370.65390625 72.8125Q370.65390625 80.48828125 366.728125 86.318359375Q362.80234375 92.1484375 355.41953125 95.400390625Q348.03671875 98.65234375 337.60703125 98.65234375Z" fill="#8A8A8A"/><path d="M393.91796875 75.80078125V60.9765625Q396.73046875 56.40625 399.455078125 52.392578125Q402.1796875 48.37890625 405.255859375 44.453125Q408.33203125 40.52734375 412.140625 36.1328125L435.05078125 10.0H454.50390625L417.47265625 51.77734375L416.30078125 51.3671875ZM382.609375 97.3046875V10.0H398.25390625V35.8984375L397.9609375 56.93359375L398.25390625 64.609375V97.3046875ZM436.6328125 97.3046875 408.859375 56.23046875 418.703125 44.453125 455.08984375 97.3046875Z" fill="#8A8A8A"/><path d="M480.22890625 10.0V97.3046875H464.584375V10.0Z" fill="#8A8A8A"/><path d="M495.40703125000005 97.3046875V10.0H528.04375Q538.06328125 10.0 544.91875 13.75Q551.77421875 17.5 555.28984375 24.033203125Q558.80546875 30.56640625 558.80546875 38.88671875Q558.80546875 47.265625 555.260546875 53.76953125Q551.715625 60.2734375 544.8015625 64.0234375Q537.8875 67.7734375 527.809375 67.7734375H506.18828125000005V54.8828125H525.75859375Q531.6765625 54.8828125 535.455859375 52.83203125Q539.23515625 50.78125 541.022265625 47.1484375Q542.809375 43.515625 542.809375 38.88671875Q542.809375 34.2578125 541.022265625 30.68359375Q539.23515625 27.109375 535.4265625 25.1171875Q531.61796875 23.125 525.64140625 23.125H511.05156250000005V97.3046875Z" fill="#8A8A8A"/><path d="M566.0148437500001 24.82421875V10.0H637.3234375000001V24.82421875H610.6632812500001V97.3046875H592.7335937500001V24.82421875Z" fill="#FFFFFF"/><path d="M647.2281250000001 97.3046875V10.0H681.2710937500001Q691.2320312500001 10.0 698.2046875000001 13.515625Q705.1773437500001 17.03125 708.8394531250001 23.41796875Q712.5015625000001 29.8046875 712.5015625000001 38.41796875Q712.5015625000001 47.03125 708.7808593750001 53.271484375Q705.0601562500001 59.51171875 697.9996093750001 62.822265625Q690.9390625000001 66.1328125 680.8609375000001 66.1328125H657.7750000000001V51.66015625H677.9898437500001Q683.4976562500001 51.66015625 687.0132812500001 50.166015625Q690.5289062500001 48.671875 692.2867187500001 45.712890625Q694.0445312500001 42.75390625 694.0445312500001 38.41796875Q694.0445312500001 33.96484375 692.2867187500001 30.947265625Q690.5289062500001 27.9296875 686.9839843750001 26.34765625Q683.4390625000001 24.765625 677.9312500000001 24.765625H665.0992187500001V97.3046875ZM695.8023437500001 97.3046875 674.5328125000001 57.578125H693.9273437500001L715.6070312500001 97.3046875Z" fill="#FFFFFF"/><path d="M718.5976562500001 97.3046875 748.4218750000001 10.0H771.8593750000001L802.4453125000001 97.3046875H782.5820312500001L768.5781250000001 55.17578125Q766.0585937500001 47.03125 763.4511718750001 37.333984375Q760.8437500000001 27.63671875 757.9726562500001 16.15234375H761.8984375000001Q759.0859375000001 27.6953125 756.6542968750001 37.451171875Q754.2226562500001 47.20703125 751.8203125000001 55.17578125L738.3437500000001 97.3046875ZM737.2304687500001 77.03125V63.02734375H783.8125000000001V77.03125Z" fill="#FFFFFF"/><path d="M848.9710937500001 98.4765625Q837.3695312500001 98.4765625 828.1996093750001 93.203125Q819.0296875000001 87.9296875 813.7269531250001 77.91015625Q808.4242187500001 67.890625 808.4242187500001 53.7109375Q808.4242187500001 39.47265625 813.7562500000001 29.423828125Q819.0882812500001 19.375 828.2875000000001 14.1015625Q837.4867187500001 8.828125 848.9710937500001 8.828125Q856.4125000000001 8.828125 862.8285156250001 10.908203125Q869.2445312500001 12.98828125 874.2250000000001 16.97265625Q879.2054687500001 20.95703125 882.3695312500001 26.728515625Q885.5335937500001 32.5 886.5296875000001 39.8828125H868.4242187500001Q867.8382812500001 36.25 866.1683593750001 33.466796875Q864.4984375000001 30.68359375 862.0082031250001 28.720703125Q859.5179687500001 26.7578125 856.2953125000001 25.732421875Q853.0726562500001 24.70703125 849.3226562500001 24.70703125Q842.5257812500001 24.70703125 837.3988281250001 28.10546875Q832.2718750000001 31.50390625 829.4300781250001 37.978515625Q826.5882812500001 44.453125 826.5882812500001 53.7109375Q826.5882812500001 63.14453125 829.4593750000001 69.58984375Q832.3304687500001 76.03515625 837.4281250000001 79.31640625Q842.5257812500001 82.59765625 849.2640625000001 82.59765625Q853.0140625000001 82.59765625 856.2074218750001 81.572265625Q859.4007812500001 80.546875 861.9496093750001 78.583984375Q864.4984375000001 76.62109375 866.1683593750001 73.80859375Q867.8382812500001 70.99609375 868.4828125000001 67.421875H886.5882812500001Q885.8851562500001 73.515625 882.9847656250001 79.08203125Q880.0843750000001 84.6484375 875.2796875000001 89.04296875Q870.4750000000001 93.4375 863.8539062500001 95.95703125Q857.2328125000001 98.4765625 848.9710937500001 98.4765625Z" fill="#FFFFFF"/><path d="M897.1960937500002 97.3046875V10.0H955.6140625000002V24.82421875H915.0671875000002V45.91796875H952.5671875000002V60.5078125H915.0671875000002V82.48046875H955.7312500000002V97.3046875Z" fill="#FFFFFF"/></svg>
