<svg xmlns="http://www.w3.org/2000/svg" viewBox="0 0 905.0 96.0" width="905.0" height="96.0" role="img" aria-label="LETSSKIPTRACE">
  <path d="M13.92 90.0V6.0H29.759999999999998V75.6H68.16V90.0ZM78.96 90.0V6.0H132.95999999999998V20.400000000000006H94.79999999999998V40.440000000000005H129.6V54.84H94.79999999999998V75.6H133.68V90.0ZM164.88 90.0V20.400000000000006H140.39999999999998V6.0H205.2V20.400000000000006H180.71999999999997V90.0ZM245.15999999999997 91.68Q235.44 91.68 228.0 88.2Q220.55999999999997 84.72 216.35999999999999 78.24000000000001Q212.16 71.76 212.16 62.64V59.28H227.76V62.64Q227.76 70.2 232.44 73.98Q237.11999999999998 77.76 245.15999999999997 77.76Q253.32 77.76 257.34000000000003 74.52000000000001Q261.36 71.28 261.36 66.24000000000001Q261.36 62.760000000000005 259.38 60.6Q257.4 58.44 253.61999999999998 57.06Q249.83999999999997 55.68 244.44 54.480000000000004L241.67999999999998 53.88Q233.04 51.96 226.85999999999999 49.019999999999996Q220.67999999999998 46.08 217.38 41.28Q214.07999999999998 36.480000000000004 214.07999999999998 28.800000000000004Q214.07999999999998 21.120000000000005 217.73999999999998 15.660000000000004Q221.39999999999998 10.200000000000003 228.05999999999997 7.260000000000005Q234.71999999999997 4.320000000000007 243.71999999999997 4.320000000000007Q252.71999999999997 4.320000000000007 259.74 7.380000000000003Q266.76 10.439999999999998 270.78 16.5Q274.79999999999995 22.560000000000002 274.79999999999995 31.68V35.28H259.2V31.68Q259.2 26.880000000000003 257.34 23.94Q255.48 21.0 252.0 19.620000000000005Q248.51999999999998 18.24000000000001 243.71999999999997 18.24000000000001Q236.51999999999998 18.24000000000001 233.09999999999997 20.940000000000005Q229.67999999999998 23.64 229.67999999999998 28.32Q229.67999999999998 31.440000000000005 231.29999999999998 33.60000000000001Q232.92 35.760000000000005 236.15999999999997 37.2Q239.39999999999998 38.64 244.44 39.72L247.2 40.32Q256.2 42.24 262.86 45.24Q269.52 48.24 273.24 53.16Q276.96 58.08 276.96 65.76Q276.96 73.44 273.05999999999995 79.25999999999999Q269.15999999999997 85.08 262.02 88.38Q254.88 91.68 245.15999999999997 91.68ZM317.87999999999994 91.68Q308.15999999999997 91.68 300.71999999999997 88.2Q293.28 84.72 289.0799999999999 78.24000000000001Q284.87999999999994 71.76 284.87999999999994 62.64V59.28H300.47999999999996V62.64Q300.47999999999996 70.2 305.15999999999997 73.98Q309.84 77.76 317.87999999999994 77.76Q326.03999999999996 77.76 330.05999999999995 74.52000000000001Q334.0799999999999 71.28 334.0799999999999 66.24000000000001Q334.0799999999999 62.760000000000005 332.0999999999999 60.6Q330.11999999999995 58.44 326.3399999999999 57.06Q322.55999999999995 55.68 317.15999999999997 54.480000000000004L314.4 53.88Q305.75999999999993 51.96 299.5799999999999 49.019999999999996Q293.4 46.08 290.09999999999997 41.28Q286.79999999999995 36.480000000000004 286.79999999999995 28.800000000000004Q286.79999999999995 21.120000000000005 290.4599999999999 15.660000000000004Q294.11999999999995 10.200000000000003 300.78 7.260000000000005Q307.43999999999994 4.320000000000007 316.43999999999994 4.320000000000007Q325.43999999999994 4.320000000000007 332.4599999999999 7.380000000000003Q339.47999999999996 10.439999999999998 343.5 16.5Q347.52 22.560000000000002 347.52 31.68V35.28H331.91999999999996V31.68Q331.91999999999996 26.880000000000003 330.05999999999995 23.94Q328.19999999999993 21.0 324.7199999999999 19.620000000000005Q321.23999999999995 18.24000000000001 316.43999999999994 18.24000000000001Q309.23999999999995 18.24000000000001 305.81999999999994 20.940000000000005Q302.4 23.64 302.4 28.32Q302.4 31.440000000000005 304.02 33.60000000000001Q305.63999999999993 35.760000000000005 308.87999999999994 37.2Q312.11999999999995 38.64 317.15999999999997 39.72L319.91999999999996 40.32Q328.91999999999996 42.24 335.5799999999999 45.24Q342.23999999999995 48.24 345.9599999999999 53.16Q349.67999999999995 58.08 349.67999999999995 65.76Q349.67999999999995 73.44 345.78 79.25999999999999Q341.87999999999994 85.08 334.73999999999995 88.38Q327.59999999999997 91.68 317.87999999999994 91.68ZM361.44 90.0V6.0H377.28V39.36H379.44L406.67999999999995 6.0H426.96L391.91999999999996 47.4L428.15999999999997 90.0H407.28L379.44 55.92H377.28V90.0ZM436.56 90.0V6.0H452.4V90.0ZM468.24 90.0V6.0H502.8Q510.71999999999997 6.0 516.78 9.18Q522.84 12.36 526.26 18.119999999999997Q529.68 23.879999999999995 529.68 31.800000000000004V33.480000000000004Q529.68 41.28 526.14 47.1Q522.6 52.92 516.54 56.1Q510.48 59.28 502.8 59.28H484.08V90.0ZM484.08 44.88H501.24Q506.88 44.88 510.36 41.760000000000005Q513.84 38.64 513.84 33.24V32.04Q513.84 26.64 510.36 23.520000000000003Q506.88 20.400000000000006 501.24 20.400000000000006H484.08ZM560.16 90.0V20.400000000000006H535.68V6.0H600.4799999999999V20.400000000000006H576.0V90.0ZM611.2799999999999 90.0V6.0H647.7599999999999Q655.68 6.0 661.56 8.759999999999998Q667.4399999999999 11.519999999999996 670.6799999999998 16.560000000000002Q673.9199999999998 21.60000000000001 673.9199999999998 28.440000000000005V29.880000000000003Q673.9199999999998 37.440000000000005 670.3199999999999 42.120000000000005Q666.7199999999999 46.800000000000004 661.4399999999999 48.96V51.120000000000005Q666.2399999999999 51.36 668.8799999999999 54.42Q671.5199999999999 57.480000000000004 671.5199999999999 62.519999999999996V90.0H655.68V64.8Q655.68 61.92 654.18 60.120000000000005Q652.68 58.32 649.1999999999999 58.32H627.1199999999999V90.0ZM627.1199999999999 43.92H646.0799999999999Q651.7199999999999 43.92 654.8999999999999 40.86Q658.0799999999999 37.800000000000004 658.0799999999999 32.760000000000005V31.560000000000002Q658.0799999999999 26.520000000000003 654.9599999999999 23.460000000000004Q651.8399999999999 20.400000000000006 646.0799999999999 20.400000000000006H627.1199999999999ZM681.3599999999999 90.0 703.4399999999999 6.0H731.04L753.1199999999999 90.0H736.8L732.2399999999999 71.52H702.2399999999999L697.68 90.0ZM705.9599999999999 56.88H728.52L718.3199999999999 15.960000000000008H716.16ZM795.12 91.68Q779.52 91.68 770.4 82.98Q761.28 74.28 761.28 58.08V37.92Q761.28 21.72 770.4 13.020000000000003Q779.52 4.320000000000007 795.12 4.320000000000007Q810.6 4.320000000000007 819.06 12.780000000000008Q827.52 21.24000000000001 827.52 36.0V36.72H811.92V35.52Q811.92 28.080000000000005 807.78 23.280000000000005Q803.64 18.480000000000004 795.12 18.480000000000004Q786.72 18.480000000000004 781.9200000000001 23.640000000000004Q777.12 28.800000000000004 777.12 37.68V58.32Q777.12 67.08 781.9200000000001 72.3Q786.72 77.52 795.12 77.52Q803.64 77.52 807.78 72.66Q811.92 67.8 811.92 60.480000000000004V58.32H827.52V60.0Q827.52 74.76 819.06 83.22Q810.6 91.68 795.12 91.68ZM840.4799999999999 90.0V6.0H894.4799999999999V20.400000000000006H856.3199999999999V40.440000000000005H891.1199999999999V54.84H856.3199999999999V75.6H895.1999999999999V90.0Z" fill="#0A0C16"/>
</svg>
